<!-- © 2026 aiaiaiai · aiaiaiai.org -->
<!-- SPDX-License-Identifier: MIT -->
<svg xmlns="http://www.w3.org/2000/svg" viewBox="0 0 64 64" role="img" aria-labelledby="title desc">
  <title id="title">aiaiaiai compact emblem</title>
  <desc id="desc">Cyan faceted polyhedron with transparent negative-space channels.</desc>
  <defs>
    <mask id="facets-mask" maskUnits="userSpaceOnUse" x="0" y="0" width="64" height="64">
      <rect width="64" height="64" fill="black"/>
      <polygon id="mask-body" points="32,7 47,14 55,29 51,45 32,57 15,47 9,30 17,15" fill="white"/>
      <g id="channels" stroke="black" stroke-width="3.2" stroke-linecap="round" stroke-linejoin="round">
        <line x1="32" y1="7" x2="32" y2="18"/>
        <line x1="17" y1="15" x2="32" y2="18"/>
        <line x1="47" y1="14" x2="32" y2="18"/>
        <line x1="17" y1="15" x2="20" y2="28"/>
        <line x1="9" y1="30" x2="20" y2="28"/>
        <line x1="32" y1="18" x2="20" y2="28"/>
        <line x1="32" y1="18" x2="44" y2="27"/>
        <line x1="47" y1="14" x2="44" y2="27"/>
        <line x1="55" y1="29" x2="44" y2="27"/>
        <line x1="20" y1="28" x2="32" y2="38"/>
        <line x1="44" y1="27" x2="32" y2="38"/>
        <line x1="20" y1="28" x2="20" y2="44"/>
        <line x1="9" y1="30" x2="20" y2="44"/>
        <line x1="15" y1="47" x2="20" y2="44"/>
        <line x1="20" y1="44" x2="32" y2="38"/>
        <line x1="32" y1="38" x2="44" y2="44"/>
        <line x1="44" y1="27" x2="44" y2="44"/>
        <line x1="55" y1="29" x2="44" y2="44"/>
        <line x1="51" y1="45" x2="44" y2="44"/>
        <line x1="20" y1="44" x2="32" y2="52"/>
        <line x1="15" y1="47" x2="32" y2="52"/>
        <line x1="32" y1="57" x2="32" y2="52"/>
        <line x1="44" y1="44" x2="32" y2="52"/>
        <line x1="51" y1="45" x2="32" y2="52"/>
      </g>
    </mask>
  </defs>
  <rect id="mark-fill" width="64" height="64" fill="#5BC6F4" mask="url(#facets-mask)"/>
</svg>
